<svg xmlns="http://www.w3.org/2000/svg" width="277" height="96" viewBox="0 0 277 96" fill="none"><g clip-path="url(#clip0_42_1624)"><path d="M194.546 68.1196C194.076 68.1196 192.459 68.3761 192.323 65.3196C192.209 62.6193 192.958 58.9074 193.677 54.5898C194.14 51.74 195.465 43.3685 195.458 42.1573C195.451 40.9461 195.53 40.7965 196.456 40.4759C197.345 40.1274 198.211 39.7229 199.049 39.2647C199.484 39.058 199.876 39.172 199.626 39.571C198.878 40.825 197.353 51.455 197.232 52.1959C196.705 55.4092 196.52 57.0763 196.228 59.6626C195.708 64.3863 195.75 66.6947 200.503 64.1939C200.856 64.0089 201.194 63.7969 201.514 63.5598C201.97 63.2534 202.184 63.4672 201.707 63.9944C201.137 64.6142 196.833 68.1196 194.546 68.1196Z" fill="#796F89"></path><path d="M203.552 43.1545C201.405 43.5214 199.232 43.7192 197.054 43.7459C194.204 43.8741 192.131 43.9382 191.077 44.4583C190.193 44.8929 189.994 46.2324 190.115 47.0944C190.115 47.0944 190.193 47.6787 190.457 47.1586C190.849 46.4461 191.675 46.0542 194.375 45.926C201.963 45.5769 205.625 44.1876 208.475 41.58L208.646 40.5469C207.485 42.0217 205.711 42.7199 203.552 43.1545Z" fill="#796F89"></path><path d="M172.624 64.9138C172.552 65.5764 172.695 66.1108 172.218 66.2746C170.7 66.7876 169.66 67.9347 168.869 68.5616C167.864 69.3382 168.313 69.0889 168.869 66.4242C170.28 60.1759 171.277 56.3642 171.562 49.838C171.619 48.4843 171.776 46.7673 170.7 45.7128C170.137 45.1571 169.346 45.0502 168.043 45.378C167.444 45.5276 167.33 44.9718 168.142 44.7937C169.858 44.33 171.515 43.6702 173.08 42.8273C174.355 42.1505 175.067 42.5637 175.317 43.0696C175.609 43.7415 175.713 44.4805 175.616 45.207C175.405 47.7565 175.05 50.2921 174.554 52.8019C176.647 49.6328 179.153 46.7575 182.007 44.2523C185.462 41.21 186.488 43.269 186.474 44.58C186.438 47.038 184.629 55.3097 183.959 61.6436C183.852 62.7123 183.603 64.9922 184.757 65.0848C185.831 65.0936 186.899 64.9177 187.913 64.5647C188.512 64.3652 188.626 64.8354 188.106 64.9851C185.62 65.5306 183.236 66.4685 181.045 67.7637C179.734 68.5474 179.214 68.2695 179.421 67.094C180.603 60.3398 182 54.3622 182.071 50.1942C182.071 47.7718 182.292 43.8675 178.238 49.4034C176.652 51.4611 175.392 53.7513 174.505 56.1932C173.468 58.9963 172.834 61.9325 172.624 64.9138Z" fill="#796F89"></path><path d="M228.595 52.2103L228.41 53.2648C228.997 53.2963 229.585 53.282 230.17 53.222C241.363 51.961 240.949 42.478 236.881 42.478C230.676 42.478 225.603 48.7691 224.271 58.4088C223.33 65.1345 225.824 68.1767 227.79 68.1838C232.606 68.1838 235.948 63.1966 236.19 62.6266C236.432 62.0566 236.19 61.85 235.784 62.3844C235.114 63.3319 232.806 66.2459 230.248 66.2459C227.811 66.2459 227.355 60.7457 227.883 56.8984C228.503 52.4383 229.856 44.4872 233.825 44.4587C236.917 44.4587 236.618 51.7187 230.262 52.4241C229.699 52.558 229.106 52.482 228.595 52.2103Z" fill="#796F89"></path><path d="M21.9011 57.1547C23.0696 58.0738 22.9841 57.4825 22.5637 57.0051C21.401 55.4842 20.8108 53.6026 20.8965 51.6901C20.8965 39.7919 34.3265 37.6189 40.1688 37.5975C47.5001 37.5975 52.8792 39.2005 52.8792 45.2423C52.8792 49.9588 48.0273 53.0794 44.7001 53.0794C44.1595 53.1213 43.6159 53.0925 43.0828 52.9939C41.8288 52.6377 42.3703 53.3074 42.8833 53.4784C43.4567 53.7033 44.0703 53.8076 44.6858 53.7847C49.8298 53.7847 57.0115 48.7975 56.9901 42.827C56.9901 38.1247 51.3688 35.1609 43.9021 35.168C26.3612 35.2107 19.493 45.6341 19.493 51.5476C19.493 54.2265 20.4762 56.0361 21.9011 57.1547Z" fill="#796F89"></path><path d="M42.9261 37.8398C43.4157 37.671 43.9339 37.6008 44.4508 37.6332C45.8329 37.7543 46.1678 38.025 44.8497 37.797C43.0899 37.4978 42.8121 38.823 42.5271 39.6851C40.867 44.7792 40.4609 49.9446 39.7485 55.2097C38.9861 60.9095 37.7108 62.9756 33.5073 66.5665C35.5006 65.8544 37.5965 65.4718 39.7129 65.4336C41.3587 65.4336 40.9882 66.9156 40.7816 67.6565C40.6747 68.0199 40.4253 68.4688 40.3683 67.9985C40.3113 67.5283 39.492 67.0509 36.9984 66.8942C33.9804 66.7725 31.0169 67.7242 28.634 69.5802C27.2589 70.6204 26.6391 69.7868 28.4844 68.8107C30.4508 67.7777 30.2157 67.8703 32.1607 66.7303C34.9393 65.0917 34.9607 62.2204 35.3668 59.8978C36.3571 54.2693 36.4426 48.997 38.2594 43.511C39.0218 41.2525 40.6462 38.6377 42.9261 37.8398Z" fill="#796F89"></path><path d="M248.031 44.43C251.095 44.43 250.546 46.9023 250.425 48.0707C250.354 48.7333 250.81 48.8259 250.881 48.0208C251.103 46.7988 251.456 45.6043 251.936 44.4585C252.456 43.2117 252.363 42.5135 249.984 42.5063C248.388 42.5063 246.264 43.6178 245.566 44.0524C242.46 45.9761 239.909 49.7094 241.869 53.2005C243.386 55.8794 246.991 57.0692 246.257 61.4651C245.958 63.2676 244.241 65.0773 241.334 65.2056C239.582 65.2839 239.639 64.1796 239.688 62.9969C239.688 62.4269 239.738 62.1277 239.802 61.515C239.866 60.9023 239.346 60.945 239.204 61.743C238.864 63.435 238.227 65.0535 237.323 66.5236C236.981 67.1007 236.611 68.1623 237.943 68.2193C239.368 68.2763 240.643 67.8987 242.581 66.7017C244.519 65.5048 247.939 62.776 249.285 59.7908C251.252 55.516 246.435 53.286 244.583 49.9018C243.664 48.2203 244.141 44.43 248.031 44.43Z" fill="#796F89"></path><path d="M212.935 29.4185C212.265 32.7671 209.373 52.1177 209.273 52.6877C211.183 49.5168 213.539 46.6374 216.269 44.1381C219.732 41.0887 220.858 43.0979 220.965 44.3946C221.121 46.4536 218.706 56.2714 218.321 61.5365C218.222 62.8973 217.944 64.5716 219.575 64.8067C220.579 64.9261 221.596 64.809 222.546 64.4648C223.152 64.2795 223.259 64.7426 222.739 64.8923C220.117 65.6047 218.464 65.9894 215.671 67.6637C214.36 68.4475 213.833 68.1696 214.039 66.994C215.229 60.2398 216.455 54.6042 216.839 50.5503C217.16 47.2658 216.839 46.6531 216.255 46.6531C214.296 46.6531 210.014 52.7162 208.903 56.25C208.043 59.0671 207.515 61.9745 207.328 64.9136C207.292 65.5833 207.285 66.0536 206.808 66.2174C205.548 66.7489 204.407 67.5264 203.452 68.5045C203.452 68.5045 202.797 69.1101 202.939 68.5045C203.018 68.1197 203.26 67.45 203.481 66.4098C204.3 62.4342 205.305 56.9411 206.209 51.8398C207.114 46.7386 208.967 34.8404 209.316 32.1615C210.477 23.1702 214.153 14.1575 221.221 7.51014C225.546 3.46332 231.758 0.0791016 238.107 0.0791016C243.357 0.0791016 246.001 2.16663 246.656 2.80785C247.312 3.44907 247.497 3.78393 246.499 3.23533C245.074 2.42312 242.26 1.45416 238.114 1.43991C232.556 1.43991 227.042 3.38495 222.055 8.22973C215.878 14.2714 214.367 22.3366 212.935 29.4185Z" fill="#796F89"></path><path d="M116.41 12.8252C115.765 13.0308 115.14 13.2956 114.543 13.6161C110.041 16.1881 106.45 19.3158 102.161 19.1163C101.27 19.0736 99.7882 20.6624 100.9 20.6481C103.75 20.6481 108.445 18.2186 110.454 16.9148C106.856 20.6624 106.5 23.9326 106.022 27.7229C105.552 31.3992 104.54 38.3529 103.628 43.5183C102.716 48.6837 100.337 62.5626 99.5104 66.531C99.2966 67.5712 99.0544 68.2409 98.9689 68.6257C98.8335 69.2455 99.489 68.6257 99.489 68.6257C100.441 67.6485 101.58 66.8731 102.838 66.3458C103.322 66.1748 103.322 65.7045 103.358 65.0348C103.539 62.106 104.06 59.2082 104.911 56.3997C106.022 52.8374 110.297 46.7672 112.264 46.7957C112.734 46.7957 113.168 47.3514 112.848 50.7C112.463 54.7468 111.23 60.3824 110.041 67.1366C109.834 68.3122 110.361 68.5615 111.679 67.8063C114.479 66.132 116.125 65.7687 118.74 65.0348C119.274 64.8852 119.16 64.4221 118.555 64.6145C117.603 64.9527 116.587 65.0673 115.584 64.9493C113.952 64.7142 114.201 63.0399 114.33 61.6791C114.814 56.3071 117.144 46.8384 116.966 44.5799C116.866 43.2761 115.74 41.274 112.278 44.3163C109.545 46.8137 107.189 49.6934 105.281 52.8659C105.367 52.2389 107.953 35.4959 108.331 33.2517C109.214 27.9794 110.19 18.8384 113.147 15.6181C114.729 13.901 115.37 13.8725 116.709 13.3168C117.408 12.9748 117.329 12.5331 116.41 12.8252Z" fill="#796F89"></path><path d="M120.136 58.3304C121.447 48.9045 126.89 42.1289 132.961 42.5136C135.248 42.6633 136.772 46.019 135.903 52.2887C134.592 61.7218 128.273 69.0388 123.079 68.1055C121.34 67.7635 119.288 64.4078 120.136 58.3304ZM126.107 66.2245C129.94 66.2245 131.265 59.1569 131.906 54.8749C132.483 51.0134 132.369 44.4658 129.612 44.4729C125.779 44.4729 124.439 51.5406 123.798 55.8225C123.257 59.677 123.335 66.2317 126.107 66.2245Z" fill="#796F89"></path><path d="M77.431 62.9259C76.7186 57.4257 75.828 50.1442 73.8687 44.4018C73.4697 43.1906 72.8784 42.8913 71.7313 43.6465C70.1708 44.7861 68.4327 45.6599 66.5873 46.2328C66.2524 46.3183 65.6824 46.3824 66.345 45.9692C67.2412 45.3641 68.0554 44.6457 68.7674 43.8318C69.6224 42.8699 69.1522 42.4567 66.8438 42.5422C65.28 42.7453 63.7756 43.2718 62.4265 44.0883C59.3272 46.0119 56.7695 49.7453 58.743 53.2363C60.2463 55.9152 63.8657 57.105 63.1247 61.501C62.8254 63.3035 61.1084 65.1132 58.1944 65.2414C56.4417 65.3198 56.5059 64.2155 56.5486 63.0328C56.5486 62.4628 56.6056 62.1564 56.6626 61.5508C56.7196 60.9452 56.2066 60.9809 56.0713 61.7788C55.7286 63.469 55.0946 65.0866 54.1975 66.5595C53.8412 67.1366 53.485 68.1982 54.8031 68.2552C56.228 68.3122 57.5033 67.9345 59.4484 66.7376C61.3934 65.5407 64.7705 62.876 66.1527 59.8552C68.1262 55.5804 63.3028 53.3503 61.4504 49.9661C60.5171 48.2847 61.0087 44.4944 64.8987 44.4944C66.7654 44.4944 66.2025 45.8196 65.3191 46.3753C64.6066 46.8028 64.6494 47.1519 65.5328 46.9809C66.4163 46.8099 68.6463 46.2684 69.8076 47.1946C70.969 48.1208 71.1684 49.332 71.603 51.1417C72.5863 55.1671 74.2534 62.5412 75.0585 68.6043L77.431 62.9259Z" fill="#796F89"></path><path d="M75.0226 68.091C70.3061 79.4905 59.9183 90.2345 45.3698 90.2345C39.336 90.2256 33.3896 88.7927 28.0141 86.0523C27.4013 85.7531 26.9525 85.9526 27.7932 86.5155C29.1611 87.4274 36.1219 92.3506 45.3698 92.3719C61.4929 92.4147 71.6028 80.2172 76.9107 67.2005C79.3829 61.1445 83.0379 50.1012 84.9259 45.4488C86.3509 41.9649 88.3814 41.4305 90.2267 40.4616C90.6755 40.2336 90.5473 39.8275 90.0842 40.0412C88.425 40.9006 86.6559 41.5286 84.8262 41.9079C84.5071 41.9585 84.2129 42.1106 83.987 42.3416C83.7612 42.5726 83.6157 42.8702 83.5723 43.1903C82.0476 49.574 78.7275 59.1425 75.0226 68.091Z" fill="#796F89"></path><path d="M159.643 61.9211C161.124 57.2758 163.575 50.9135 165.805 43.2259C165.857 42.9073 166.006 42.6124 166.232 42.3816C166.458 42.1508 166.749 41.9953 167.066 41.9364C168.895 41.5585 170.664 40.9328 172.324 40.0768C172.788 39.856 172.93 40.2834 172.474 40.4901C170.721 41.2738 168.356 42.3567 167.487 44.6366C162.649 57.1547 162.5 58.7506 159.799 65.2056C155.339 76.0066 149.426 81.1149 142.7 81.1292C140.525 81.1774 138.391 80.531 136.608 79.2839C136.024 78.7852 135.853 78.4432 136.722 78.8564C138.637 79.4202 140.626 79.687 142.622 79.6473C149.191 79.6473 155.624 74.5317 159.643 61.9211Z" fill="#796F89"></path><path d="M157.398 68.2405C156.757 63.1393 154.983 55.5515 154.441 53.0792C154.05 51.2696 153.216 48.092 152.055 47.1586C150.893 46.2253 148.77 46.7454 147.78 46.9378C146.79 47.1301 146.875 46.7597 147.566 46.3322C148.464 45.7764 148.991 44.4513 147.146 44.4513C143.256 44.4513 142.771 48.2487 143.705 49.923C145.586 53.3144 150.373 55.5159 148.407 59.812C147.018 62.8329 143.576 65.5118 141.695 66.7016C139.815 67.8914 138.482 68.2762 137.05 68.212C135.761 68.1622 136.095 67.0935 136.445 66.5164C137.343 65.0441 137.977 63.4262 138.318 61.7357C138.461 60.9449 138.995 60.8451 138.924 61.5077C138.853 62.1703 138.824 62.4197 138.803 62.9897C138.753 64.1724 138.689 65.2838 140.449 65.2054C143.355 65.0772 145.08 63.2675 145.379 61.4579C146.091 57.0619 142.529 55.8792 140.99 53.1932C139.031 49.7021 141.581 45.9759 144.688 44.0452C146.034 43.2248 147.54 42.7002 149.105 42.5062C151.399 42.4207 151.869 42.8268 151.015 43.7958C150.303 44.6078 149.492 45.326 148.599 45.9332C147.93 46.3393 148.507 46.2823 148.841 46.1897C150.688 45.615 152.429 44.7413 153.993 43.6034C155.14 42.891 155.731 43.1546 156.13 44.3586C157.769 49.2533 159.023 57.3255 159.593 62.0848L157.398 68.2405Z" fill="#796F89"></path><path d="M255.206 41.5234C254.9 41.6446 255.028 41.7942 255.206 41.7586C257.7 41.096 262.929 36.7713 261.661 35.439C261.034 34.7764 257.657 36.5932 257.35 36.9708C257.293 37.042 257.108 37.156 257.073 37.2059C256.845 37.5123 257.073 37.4695 257.222 37.3769C257.55 37.2059 257.935 37.3769 257.806 38.1748C257.543 39.8634 255.47 41.4023 255.206 41.5234Z" fill="#796F89"></path><path d="M258.889 65.1202C260.314 65.1202 262.786 62.4057 263.107 61.5579C263.428 60.71 263.891 60.8454 263.713 61.622C263.185 63.9446 263.071 65.106 265.066 65.106C267.653 65.106 269.804 63.4388 270.146 61.4011C270.859 57.0052 267.296 55.8154 265.757 53.1365C263.791 49.6454 266.349 45.9121 269.448 43.9884C270.16 43.5538 272.298 42.4424 273.865 42.4424C276.245 42.4424 276.345 43.1549 275.825 44.3945C275.342 45.5392 274.988 46.734 274.77 47.9569C274.699 48.762 274.243 48.6693 274.307 48.0068C274.428 46.8383 274.977 44.366 271.92 44.366C268.03 44.366 267.539 48.1635 268.472 49.8378C270.346 53.222 275.141 55.4307 273.174 59.7268C271.785 62.7406 268.344 65.4266 266.47 66.6164C265.192 67.5372 263.676 68.0714 262.102 68.1553C260.364 68.1553 260.834 67.1365 261.91 65.3055C262.261 64.6325 262.557 63.932 262.794 63.2108C263.136 62.2703 262.722 62.7762 262.53 63.1324C261.087 64.906 259.372 66.4401 257.45 67.678C254.728 69.224 253.396 66.8943 254.208 61.7645C254.921 57.4897 256.153 50.365 256.153 47.9355C256.153 46.304 254.664 45.449 252.52 46.2826C252.135 46.4322 251.608 46.0047 252.634 45.7411C254.909 45.11 257.072 44.1294 259.046 42.8342C260.029 42.2714 260.656 42.5564 260.407 43.6536C259.694 46.7528 257.699 56.1645 257.486 62.078C257.393 65.5477 258.697 65.1202 258.889 65.1202Z" fill="#796F89"></path><path d="M93.1196 45.6771C93.5369 45.1677 94.0747 44.7705 94.6844 44.5217C95.294 44.2728 95.9562 44.1802 96.6107 44.2521C98.1995 44.3376 99.2184 45.9906 98.9975 48.1493C98.9334 48.8119 99.3822 48.8618 99.4535 48.0995C99.6786 46.879 100.03 45.6852 100.501 44.5371C101.021 43.2903 100.807 42.6562 98.4418 42.5707C92.9558 42.357 87.0423 48.0923 85.6672 58.3946C84.8408 64.6999 86.8001 67.9345 88.6097 68.1697C93.4331 68.7966 97.2377 63.275 97.4799 62.7264C97.7222 62.1778 97.4799 61.9498 97.0809 62.4842C96.3186 63.5529 94.0815 66.2602 91.6163 66.2602C89.0016 66.2602 88.7166 60.6033 89.1939 56.8058C89.5288 54.0771 90.7542 48.0852 93.1196 45.6771Z" fill="#796F89"></path><path d="M96.4083 87.1681L95.6037 87.3958C95.5531 87.2617 95.4785 87.1314 95.3798 87.0049C95.2837 86.8759 95.1521 86.7696 94.9851 86.6862C94.8181 86.6027 94.6043 86.5609 94.3438 86.5609C93.987 86.5609 93.6897 86.6431 93.4519 86.8076C93.2166 86.9695 93.099 87.1757 93.099 87.4262C93.099 87.6488 93.1799 87.8247 93.3418 87.9537C93.5038 88.0828 93.7568 88.1903 94.1009 88.2763L94.9661 88.4888C95.4873 88.6153 95.8757 88.8089 96.1312 89.0695C96.3868 89.3275 96.5145 89.6602 96.5145 90.0676C96.5145 90.4016 96.4184 90.7001 96.2261 90.9632C96.0364 91.2264 95.7707 91.4338 95.4292 91.5856C95.0876 91.7374 94.6904 91.8133 94.2375 91.8133C93.6429 91.8133 93.1508 91.6843 92.7612 91.4262C92.3716 91.1682 92.1249 90.7912 92.0211 90.2953L92.8713 90.0828C92.9522 90.3965 93.1053 90.6318 93.3305 90.7887C93.5582 90.9455 93.8554 91.024 94.2223 91.024C94.6398 91.024 94.9712 90.9354 95.2166 90.7583C95.4646 90.5787 95.5885 90.3636 95.5885 90.1131C95.5885 89.9107 95.5177 89.7412 95.376 89.6046C95.2343 89.4654 95.0167 89.3617 94.7233 89.2934L93.7517 89.0657C93.2179 88.9392 92.8257 88.7431 92.5752 88.4774C92.3273 88.2093 92.2033 87.874 92.2033 87.4717C92.2033 87.1428 92.2957 86.8519 92.4804 86.5989C92.6676 86.3459 92.9219 86.1472 93.2432 86.003C93.567 85.8588 93.9339 85.7867 94.3438 85.7867C94.9206 85.7867 95.3735 85.9132 95.7024 86.1662C96.0338 86.4192 96.2691 86.7532 96.4083 87.1681ZM100.307 91.8133C99.7451 91.8133 99.2606 91.6894 98.8533 91.4414C98.4485 91.1909 98.136 90.8418 97.9159 90.394C97.6983 89.9436 97.5895 89.4199 97.5895 88.8228C97.5895 88.2257 97.6983 87.6994 97.9159 87.244C98.136 86.7861 98.4421 86.4294 98.8343 86.1738C99.229 85.9157 99.6895 85.7867 100.216 85.7867C100.519 85.7867 100.819 85.8373 101.115 85.9385C101.411 86.0397 101.681 86.2042 101.924 86.4319C102.166 86.6571 102.36 86.9556 102.504 87.3275C102.648 87.6994 102.72 88.1574 102.72 88.7014V89.0809H98.2271V88.3067H101.81C101.81 87.9778 101.744 87.6843 101.612 87.4262C101.483 87.1681 101.299 86.9645 101.058 86.8152C100.82 86.6659 100.54 86.5913 100.216 86.5913C99.859 86.5913 99.5503 86.6798 99.2897 86.8569C99.0317 87.0315 98.833 87.2592 98.6939 87.5401C98.5547 87.8209 98.4852 88.122 98.4852 88.4433V88.9594C98.4852 89.3997 98.5611 89.7728 98.7129 90.079C98.8672 90.3826 99.081 90.6141 99.3542 90.7735C99.6275 90.9303 99.945 91.0088 100.307 91.0088C100.542 91.0088 100.755 90.9759 100.944 90.9101C101.137 90.8418 101.302 90.7406 101.442 90.6065C101.581 90.4699 101.688 90.3004 101.764 90.098L102.629 90.3408C102.538 90.6343 102.385 90.8924 102.17 91.115C101.955 91.3352 101.689 91.5072 101.373 91.6312C101.057 91.7526 100.701 91.8133 100.307 91.8133ZM104.083 91.6919V85.8626H104.948V86.7431H105.009C105.115 86.4547 105.307 86.2206 105.586 86.041C105.864 85.8614 106.178 85.7715 106.527 85.7715C106.593 85.7715 106.675 85.7728 106.774 85.7753C106.872 85.7779 106.947 85.7817 106.998 85.7867V86.6975C106.967 86.6899 106.898 86.6786 106.789 86.6634C106.683 86.6457 106.57 86.6368 106.451 86.6368C106.168 86.6368 105.915 86.6963 105.692 86.8152C105.472 86.9316 105.297 87.0935 105.168 87.301C105.042 87.5059 104.979 87.7399 104.979 88.0031V91.6919H104.083ZM113.003 85.8626L110.848 91.6919H109.937L107.781 85.8626H108.753L110.362 90.5078H110.423L112.032 85.8626H113.003ZM114.185 91.6919V85.8626H115.081V91.6919H114.185ZM114.641 84.8911C114.466 84.8911 114.316 84.8316 114.189 84.7127C114.065 84.5938 114.003 84.4508 114.003 84.2839C114.003 84.1169 114.065 83.9739 114.189 83.855C114.316 83.7361 114.466 83.6766 114.641 83.6766C114.815 83.6766 114.965 83.7361 115.089 83.855C115.215 83.9739 115.278 84.1169 115.278 84.2839C115.278 84.4508 115.215 84.5938 115.089 84.7127C114.965 84.8316 114.815 84.8911 114.641 84.8911ZM117.617 88.1852V91.6919H116.722V85.8626H117.587V86.7734H117.663C117.799 86.4774 118.007 86.2396 118.285 86.06C118.563 85.8778 118.923 85.7867 119.363 85.7867C119.758 85.7867 120.103 85.8677 120.399 86.0296C120.695 86.189 120.925 86.4319 121.09 86.7583C121.254 87.0821 121.336 87.492 121.336 87.9879V91.6919H120.441V88.0486C120.441 87.5907 120.322 87.2339 120.084 86.9784C119.846 86.7203 119.52 86.5913 119.105 86.5913C118.819 86.5913 118.563 86.6533 118.338 86.7772C118.116 86.9012 117.94 87.0821 117.811 87.3199C117.682 87.5578 117.617 87.8462 117.617 88.1852ZM125.326 93.9993C124.893 93.9993 124.521 93.9437 124.21 93.8323C123.899 93.7235 123.64 93.5793 123.432 93.3997C123.227 93.2226 123.064 93.0328 122.943 92.8304L123.656 92.3295C123.737 92.4357 123.84 92.5572 123.964 92.6938C124.088 92.833 124.257 92.9531 124.472 93.0543C124.69 93.1581 124.974 93.2099 125.326 93.2099C125.797 93.2099 126.185 93.0961 126.491 92.8684C126.797 92.6407 126.95 92.2839 126.95 91.7982V90.6141H126.874C126.809 90.7203 126.715 90.8519 126.594 91.0088C126.475 91.1631 126.303 91.301 126.077 91.4224C125.855 91.5414 125.554 91.6008 125.174 91.6008C124.704 91.6008 124.281 91.4895 123.907 91.2668C123.535 91.0442 123.24 90.7203 123.022 90.2953C122.807 89.8702 122.7 89.3541 122.7 88.7469C122.7 88.1498 122.805 87.6299 123.015 87.1871C123.225 86.7418 123.517 86.3977 123.891 86.1548C124.266 85.9094 124.699 85.7867 125.189 85.7867C125.569 85.7867 125.87 85.85 126.093 85.9765C126.318 86.1004 126.49 86.2421 126.609 86.4015C126.73 86.5584 126.824 86.6874 126.89 86.7886H126.981V85.8626H127.846V91.8589C127.846 92.3598 127.732 92.7672 127.504 93.0809C127.279 93.3972 126.976 93.6287 126.594 93.7754C126.214 93.9247 125.792 93.9993 125.326 93.9993ZM125.296 90.7963C125.655 90.7963 125.959 90.714 126.206 90.5496C126.454 90.3851 126.643 90.1486 126.772 89.8399C126.901 89.5312 126.966 89.1618 126.966 88.7317C126.966 88.3117 126.902 87.9411 126.776 87.6197C126.649 87.2984 126.462 87.0467 126.214 86.8645C125.966 86.6824 125.66 86.5913 125.296 86.5913C124.916 86.5913 124.6 86.6874 124.347 86.8797C124.096 87.072 123.908 87.3301 123.781 87.6539C123.657 87.9778 123.595 88.337 123.595 88.7317C123.595 89.1365 123.659 89.4945 123.785 89.8057C123.914 90.1144 124.104 90.3573 124.354 90.5344C124.607 90.709 124.921 90.7963 125.296 90.7963ZM130.381 88.1852V91.6919H129.485V83.9195H130.381V86.7734H130.457C130.594 86.4724 130.799 86.2333 131.072 86.0562C131.348 85.8765 131.714 85.7867 132.172 85.7867C132.57 85.7867 132.917 85.8664 133.216 86.0258C133.515 86.1827 133.746 86.4243 133.911 86.7507C134.078 87.0745 134.161 87.4869 134.161 87.9879V91.6919H133.265V88.0486C133.265 87.5856 133.145 87.2276 132.905 86.9746C132.667 86.719 132.337 86.5913 131.914 86.5913C131.621 86.5913 131.358 86.6533 131.125 86.7772C130.895 86.9012 130.713 87.0821 130.578 87.3199C130.447 87.5578 130.381 87.8462 130.381 88.1852ZM139.473 89.3086V85.8626H140.369V91.6919H139.473V90.7052H139.412C139.276 91.0012 139.063 91.2529 138.775 91.4604C138.486 91.6653 138.122 91.7678 137.682 91.7678C137.318 91.7678 136.994 91.6881 136.71 91.5287C136.427 91.3668 136.204 91.1239 136.042 90.8C135.881 90.4737 135.8 90.0625 135.8 89.5666V85.8626H136.695V89.5059C136.695 89.931 136.814 90.27 137.052 90.523C137.292 90.776 137.598 90.9025 137.97 90.9025C138.193 90.9025 138.419 90.8456 138.65 90.7317C138.882 90.6179 139.077 90.4433 139.234 90.208C139.394 89.9727 139.473 89.6729 139.473 89.3086ZM142.009 91.6919V85.8626H142.875V86.7734H142.95C143.072 86.4622 143.268 86.2206 143.539 86.0486C143.809 85.874 144.135 85.7867 144.514 85.7867C144.899 85.7867 145.219 85.874 145.474 86.0486C145.732 86.2206 145.933 86.4622 146.078 86.7734H146.138C146.288 86.4724 146.512 86.2333 146.81 86.0562C147.109 85.8765 147.467 85.7867 147.884 85.7867C148.405 85.7867 148.832 85.9499 149.163 86.2763C149.494 86.6001 149.66 87.1049 149.66 87.7905V91.6919H148.765V87.7905C148.765 87.3604 148.647 87.053 148.412 86.8683C148.176 86.6836 147.899 86.5913 147.581 86.5913C147.171 86.5913 146.853 86.7152 146.628 86.9632C146.403 87.2086 146.29 87.5198 146.29 87.8968V91.6919H145.379V87.6994C145.379 87.368 145.272 87.1011 145.057 86.8987C144.842 86.6937 144.565 86.5913 144.226 86.5913C143.993 86.5913 143.775 86.6533 143.573 86.7772C143.373 86.9012 143.211 87.0733 143.087 87.2934C142.966 87.511 142.905 87.7627 142.905 88.0486V91.6919H142.009ZM153.013 91.8285C152.644 91.8285 152.309 91.7589 152.007 91.6198C151.706 91.4781 151.467 91.2744 151.29 91.0088C151.113 90.7406 151.025 90.4167 151.025 90.0372C151.025 89.7033 151.09 89.4325 151.222 89.2251C151.353 89.0151 151.529 88.8506 151.749 88.7317C151.97 88.6128 152.212 88.5242 152.478 88.4661C152.746 88.4053 153.016 88.3573 153.286 88.3218C153.641 88.2763 153.928 88.2421 154.148 88.2194C154.371 88.1941 154.532 88.1523 154.634 88.0941C154.737 88.0359 154.789 87.9347 154.789 87.7905V87.7602C154.789 87.3857 154.687 87.0948 154.482 86.8873C154.279 86.6798 153.972 86.5761 153.56 86.5761C153.132 86.5761 152.797 86.6697 152.554 86.8569C152.311 87.0442 152.14 87.244 152.042 87.4566L151.192 87.153C151.343 86.7987 151.546 86.523 151.799 86.3256C152.054 86.1257 152.333 85.9866 152.634 85.9082C152.937 85.8272 153.236 85.7867 153.529 85.7867C153.717 85.7867 153.932 85.8095 154.174 85.855C154.42 85.898 154.656 85.9879 154.884 86.1245C155.114 86.2611 155.305 86.4673 155.457 86.7431C155.609 87.0189 155.685 87.3882 155.685 87.8513V91.6919H154.789V90.9025H154.744C154.683 91.029 154.582 91.1644 154.44 91.3086C154.298 91.4528 154.11 91.5755 153.875 91.6767C153.639 91.7779 153.352 91.8285 153.013 91.8285ZM153.15 91.024C153.504 91.024 153.803 90.9544 154.045 90.8152C154.291 90.6761 154.476 90.4964 154.6 90.2763C154.726 90.0562 154.789 89.8247 154.789 89.5818V88.7621C154.751 88.8076 154.668 88.8494 154.539 88.8873C154.412 88.9227 154.266 88.9544 154.099 88.9822C153.934 89.0075 153.773 89.0303 153.617 89.0505C153.462 89.0682 153.337 89.0834 153.241 89.096C153.008 89.1264 152.791 89.1757 152.588 89.2441C152.388 89.3098 152.226 89.4098 152.102 89.5439C151.981 89.6754 151.92 89.8551 151.92 90.0828C151.92 90.394 152.035 90.6293 152.266 90.7887C152.498 90.9455 152.793 91.024 153.15 91.024ZM158.215 88.1852V91.6919H157.32V85.8626H158.185V86.7734H158.261C158.397 86.4774 158.605 86.2396 158.883 86.06C159.162 85.8778 159.521 85.7867 159.961 85.7867C160.356 85.7867 160.701 85.8677 160.997 86.0296C161.293 86.189 161.523 86.4319 161.688 86.7583C161.852 87.0821 161.935 87.492 161.935 87.9879V91.6919H161.039V88.0486C161.039 87.5907 160.92 87.2339 160.682 86.9784C160.444 86.7203 160.118 86.5913 159.703 86.5913C159.417 86.5913 159.162 86.6533 158.936 86.7772C158.714 86.9012 158.538 87.0821 158.409 87.3199C158.28 87.5578 158.215 87.8462 158.215 88.1852ZM163.571 91.6919V85.8626H164.467V91.6919H163.571ZM164.027 84.8911C163.852 84.8911 163.701 84.8316 163.575 84.7127C163.451 84.5938 163.389 84.4508 163.389 84.2839C163.389 84.1169 163.451 83.9739 163.575 83.855C163.701 83.7361 163.852 83.6766 164.027 83.6766C164.201 83.6766 164.35 83.7361 164.474 83.855C164.601 83.9739 164.664 84.1169 164.664 84.2839C164.664 84.4508 164.601 84.5938 164.474 84.7127C164.35 84.8316 164.201 84.8911 164.027 84.8911ZM168.642 85.8626V86.6216H165.621V85.8626H168.642ZM166.502 84.466H167.398V90.022C167.398 90.2751 167.434 90.4648 167.508 90.5913C167.584 90.7153 167.68 90.7988 167.796 90.8418C167.915 90.8823 168.04 90.9025 168.172 90.9025C168.27 90.9025 168.351 90.8975 168.415 90.8873C168.478 90.8747 168.529 90.8646 168.566 90.857L168.749 91.6615C168.688 91.6843 168.603 91.7071 168.494 91.7298C168.386 91.7551 168.248 91.7678 168.081 91.7678C167.828 91.7678 167.58 91.7134 167.337 91.6046C167.096 91.4958 166.897 91.3301 166.737 91.1074C166.58 90.8848 166.502 90.604 166.502 90.2649V84.466ZM170.566 93.8779C170.415 93.8779 170.279 93.8652 170.16 93.8399C170.041 93.8172 169.959 93.7944 169.914 93.7716L170.141 92.9822C170.359 93.0379 170.551 93.0581 170.718 93.043C170.885 93.0278 171.033 92.9531 171.162 92.819C171.294 92.6875 171.414 92.4737 171.523 92.1777L171.69 91.7223L169.534 85.8626H170.506L172.115 90.5078H172.176L173.785 85.8626H174.756L172.282 92.542C172.171 92.8431 172.033 93.0923 171.868 93.2896C171.704 93.4895 171.513 93.6375 171.295 93.7337C171.08 93.8298 170.837 93.8779 170.566 93.8779ZM175.938 91.6919V85.8626H176.834V91.6919H175.938ZM176.394 84.8911C176.219 84.8911 176.069 84.8316 175.942 84.7127C175.818 84.5938 175.756 84.4508 175.756 84.2839C175.756 84.1169 175.818 83.9739 175.942 83.855C176.069 83.7361 176.219 83.6766 176.394 83.6766C176.568 83.6766 176.718 83.7361 176.842 83.855C176.968 83.9739 177.031 84.1169 177.031 84.2839C177.031 84.4508 176.968 84.5938 176.842 84.7127C176.718 84.8316 176.568 84.8911 176.394 84.8911ZM179.37 88.1852V91.6919H178.475V85.8626H179.34V86.7734H179.416C179.552 86.4774 179.76 86.2396 180.038 86.06C180.316 85.8778 180.676 85.7867 181.116 85.7867C181.511 85.7867 181.856 85.8677 182.152 86.0296C182.448 86.189 182.678 86.4319 182.843 86.7583C183.007 87.0821 183.089 87.492 183.089 87.9879V91.6919H182.194V88.0486C182.194 87.5907 182.075 87.2339 181.837 86.9784C181.599 86.7203 181.273 86.5913 180.858 86.5913C180.572 86.5913 180.316 86.6533 180.091 86.7772C179.869 86.9012 179.693 87.0821 179.564 87.3199C179.435 87.5578 179.37 87.8462 179.37 88.1852ZM187.261 85.8626V86.6216H184.24V85.8626H187.261ZM185.121 84.466H186.016V90.022C186.016 90.2751 186.053 90.4648 186.126 90.5913C186.202 90.7153 186.298 90.7988 186.415 90.8418C186.534 90.8823 186.659 90.9025 186.791 90.9025C186.889 90.9025 186.97 90.8975 187.033 90.8873C187.097 90.8747 187.147 90.8646 187.185 90.857L187.367 91.6615C187.307 91.6843 187.222 91.7071 187.113 91.7298C187.004 91.7551 186.866 91.7678 186.699 91.7678C186.446 91.7678 186.199 91.7134 185.956 91.6046C185.715 91.4958 185.515 91.3301 185.356 91.1074C185.199 90.8848 185.121 90.604 185.121 90.2649V84.466ZM188.608 91.6919V85.8626H189.474V86.7431H189.534C189.641 86.4547 189.833 86.2206 190.111 86.041C190.39 85.8614 190.703 85.7715 191.052 85.7715C191.118 85.7715 191.2 85.7728 191.299 85.7753C191.398 85.7779 191.472 85.7817 191.523 85.7867V86.6975C191.493 86.6899 191.423 86.6786 191.314 86.6634C191.208 86.6457 191.095 86.6368 190.977 86.6368C190.693 86.6368 190.44 86.6963 190.218 86.8152C189.997 86.9316 189.823 87.0935 189.694 87.301C189.567 87.5059 189.504 87.7399 189.504 88.0031V91.6919H188.608ZM194.3 91.8285C193.931 91.8285 193.595 91.7589 193.294 91.6198C192.993 91.4781 192.754 91.2744 192.577 91.0088C192.4 90.7406 192.311 90.4167 192.311 90.0372C192.311 89.7033 192.377 89.4325 192.509 89.2251C192.64 89.0151 192.816 88.8506 193.036 88.7317C193.256 88.6128 193.499 88.5242 193.765 88.4661C194.033 88.4053 194.303 88.3573 194.573 88.3218C194.928 88.2763 195.215 88.2421 195.435 88.2194C195.657 88.1941 195.819 88.1523 195.921 88.0941C196.024 88.0359 196.076 87.9347 196.076 87.7905V87.7602C196.076 87.3857 195.974 87.0948 195.769 86.8873C195.566 86.6798 195.259 86.5761 194.847 86.5761C194.419 86.5761 194.084 86.6697 193.841 86.8569C193.598 87.0442 193.427 87.244 193.329 87.4566L192.478 87.153C192.63 86.7987 192.833 86.523 193.086 86.3256C193.341 86.1257 193.62 85.9866 193.921 85.9082C194.224 85.8272 194.523 85.7867 194.816 85.7867C195.003 85.7867 195.219 85.8095 195.461 85.855C195.707 85.898 195.943 85.9879 196.171 86.1245C196.401 86.2611 196.592 86.4673 196.744 86.7431C196.896 87.0189 196.972 87.3882 196.972 87.8513V91.6919H196.076V90.9025H196.031C195.97 91.029 195.869 91.1644 195.727 91.3086C195.585 91.4528 195.397 91.5755 195.162 91.6767C194.926 91.7779 194.639 91.8285 194.3 91.8285ZM194.437 91.024C194.791 91.024 195.089 90.9544 195.332 90.8152C195.578 90.6761 195.762 90.4964 195.886 90.2763C196.013 90.0562 196.076 89.8247 196.076 89.5818V88.7621C196.038 88.8076 195.955 88.8494 195.826 88.8873C195.699 88.9227 195.552 88.9544 195.386 88.9822C195.221 89.0075 195.06 89.0303 194.904 89.0505C194.749 89.0682 194.624 89.0834 194.528 89.096C194.295 89.1264 194.077 89.1757 193.875 89.2441C193.675 89.3098 193.513 89.4098 193.389 89.5439C193.268 89.6754 193.207 89.8551 193.207 90.0828C193.207 90.394 193.322 90.6293 193.552 90.7887C193.785 90.9455 194.08 91.024 194.437 91.024ZM199.502 88.1852V91.6919H198.607V85.8626H199.472V86.7734H199.548C199.684 86.4774 199.892 86.2396 200.17 86.06C200.448 85.8778 200.808 85.7867 201.248 85.7867C201.643 85.7867 201.988 85.8677 202.284 86.0296C202.58 86.189 202.81 86.4319 202.975 86.7583C203.139 87.0821 203.221 87.492 203.221 87.9879V91.6919H202.326V88.0486C202.326 87.5907 202.207 87.2339 201.969 86.9784C201.731 86.7203 201.405 86.5913 200.99 86.5913C200.704 86.5913 200.448 86.6533 200.223 86.7772C200.001 86.9012 199.825 87.0821 199.696 87.3199C199.567 87.5578 199.502 87.8462 199.502 88.1852ZM208.987 87.1681L208.183 87.3958C208.132 87.2617 208.057 87.1314 207.959 87.0049C207.863 86.8759 207.731 86.7696 207.564 86.6862C207.397 86.6027 207.183 86.5609 206.923 86.5609C206.566 86.5609 206.269 86.6431 206.031 86.8076C205.795 86.9695 205.678 87.1757 205.678 87.4262C205.678 87.6488 205.759 87.8247 205.921 87.9537C206.083 88.0828 206.336 88.1903 206.68 88.2763L207.545 88.4888C208.066 88.6153 208.455 88.8089 208.71 89.0695C208.966 89.3275 209.093 89.6602 209.093 90.0676C209.093 90.4016 208.997 90.7001 208.805 90.9632C208.615 91.2264 208.35 91.4338 208.008 91.5856C207.666 91.7374 207.269 91.8133 206.816 91.8133C206.222 91.8133 205.73 91.6843 205.34 91.4262C204.95 91.1682 204.704 90.7912 204.6 90.2953L205.45 90.0828C205.531 90.3965 205.684 90.6318 205.909 90.7887C206.137 90.9455 206.434 91.024 206.801 91.024C207.219 91.024 207.55 90.9354 207.795 90.7583C208.043 90.5787 208.167 90.3636 208.167 90.1131C208.167 89.9107 208.097 89.7412 207.955 89.6046C207.813 89.4654 207.596 89.3617 207.302 89.2934L206.331 89.0657C205.797 88.9392 205.405 88.7431 205.154 88.4774C204.906 88.2093 204.782 87.874 204.782 87.4717C204.782 87.1428 204.875 86.8519 205.059 86.5989C205.246 86.3459 205.501 86.1472 205.822 86.003C206.146 85.8588 206.513 85.7867 206.923 85.7867C207.499 85.7867 207.952 85.9132 208.281 86.1662C208.613 86.4192 208.848 86.7532 208.987 87.1681ZM210.442 91.6919V85.8626H211.337V91.6919H210.442ZM210.897 84.8911C210.722 84.8911 210.572 84.8316 210.445 84.7127C210.321 84.5938 210.259 84.4508 210.259 84.2839C210.259 84.1169 210.321 83.9739 210.445 83.855C210.572 83.7361 210.722 83.6766 210.897 83.6766C211.072 83.6766 211.221 83.7361 211.345 83.855C211.471 83.9739 211.535 84.1169 211.535 84.2839C211.535 84.4508 211.471 84.5938 211.345 84.7127C211.221 84.8316 211.072 84.8911 210.897 84.8911ZM215.513 85.8626V86.6216H212.492V85.8626H215.513ZM213.372 84.466H214.268V90.022C214.268 90.2751 214.305 90.4648 214.378 90.5913C214.454 90.7153 214.55 90.7988 214.667 90.8418C214.785 90.8823 214.911 90.9025 215.042 90.9025C215.141 90.9025 215.222 90.8975 215.285 90.8873C215.348 90.8747 215.399 90.8646 215.437 90.857L215.619 91.6615C215.558 91.6843 215.474 91.7071 215.365 91.7298C215.256 91.7551 215.118 91.7678 214.951 91.7678C214.698 91.7678 214.45 91.7134 214.207 91.6046C213.967 91.4958 213.767 91.3301 213.608 91.1074C213.451 90.8848 213.372 90.604 213.372 90.2649V84.466ZM216.86 91.6919V85.8626H217.756V91.6919H216.86ZM217.316 84.8911C217.141 84.8911 216.99 84.8316 216.864 84.7127C216.74 84.5938 216.678 84.4508 216.678 84.2839C216.678 84.1169 216.74 83.9739 216.864 83.855C216.99 83.7361 217.141 83.6766 217.316 83.6766C217.49 83.6766 217.639 83.7361 217.763 83.855C217.89 83.9739 217.953 84.1169 217.953 84.2839C217.953 84.4508 217.89 84.5938 217.763 84.7127C217.639 84.8316 217.49 84.8911 217.316 84.8911ZM221.764 91.8133C221.238 91.8133 220.776 91.6881 220.379 91.4376C219.984 91.1871 219.676 90.8367 219.453 90.3864C219.233 89.936 219.123 89.4098 219.123 88.8076C219.123 88.2004 219.233 87.6704 219.453 87.2175C219.676 86.7646 219.984 86.4129 220.379 86.1624C220.776 85.912 221.238 85.7867 221.764 85.7867C222.291 85.7867 222.751 85.912 223.146 86.1624C223.543 86.4129 223.852 86.7646 224.072 87.2175C224.294 87.6704 224.406 88.2004 224.406 88.8076C224.406 89.4098 224.294 89.936 224.072 90.3864C223.852 90.8367 223.543 91.1871 223.146 91.4376C222.751 91.6881 222.291 91.8133 221.764 91.8133ZM221.764 91.0088C222.164 91.0088 222.493 90.9063 222.751 90.7014C223.009 90.4964 223.2 90.227 223.324 89.893C223.448 89.559 223.51 89.1972 223.51 88.8076C223.51 88.418 223.448 88.0549 223.324 87.7184C223.2 87.3819 223.009 87.1099 222.751 86.9025C222.493 86.695 222.164 86.5913 221.764 86.5913C221.365 86.5913 221.036 86.695 220.778 86.9025C220.52 87.1099 220.329 87.3819 220.205 87.7184C220.081 88.0549 220.019 88.418 220.019 88.8076C220.019 89.1972 220.081 89.559 220.205 89.893C220.329 90.227 220.52 90.4964 220.778 90.7014C221.036 90.9063 221.365 91.0088 221.764 91.0088ZM226.669 88.1852V91.6919H225.773V85.8626H226.638V86.7734H226.714C226.851 86.4774 227.058 86.2396 227.336 86.06C227.615 85.8778 227.974 85.7867 228.414 85.7867C228.809 85.7867 229.154 85.8677 229.45 86.0296C229.746 86.189 229.977 86.4319 230.141 86.7583C230.306 87.0821 230.388 87.492 230.388 87.9879V91.6919H229.492V88.0486C229.492 87.5907 229.373 87.2339 229.135 86.9784C228.898 86.7203 228.571 86.5913 228.156 86.5913C227.87 86.5913 227.615 86.6533 227.39 86.7772C227.167 86.9012 226.991 87.0821 226.862 87.3199C226.733 87.5578 226.669 87.8462 226.669 88.1852Z" fill="#808285"></path><path d="M3.35487 14.2103V14.9693H0.333969V14.2103H3.35487ZM1.21443 12.8137H2.11008V18.3697C2.11008 18.6227 2.14676 18.8125 2.22014 18.939C2.29604 19.0629 2.39218 19.1464 2.50856 19.1894C2.62748 19.2299 2.75271 19.2502 2.88428 19.2502C2.98295 19.2502 3.06391 19.2451 3.12716 19.235C3.19042 19.2223 3.24102 19.2122 3.27897 19.2046L3.46113 20.0092C3.40041 20.032 3.31565 20.0547 3.20686 20.0775C3.09807 20.1028 2.96018 20.1155 2.7932 20.1155C2.54019 20.1155 2.29224 20.0611 2.04936 19.9523C1.809 19.8435 1.60912 19.6778 1.44973 19.4551C1.29286 19.2325 1.21443 18.9516 1.21443 18.6126V12.8137ZM5.72301 16.5329V20.0396H4.82737V12.2672H5.72301V15.1211H5.79892C5.93554 14.82 6.14048 14.5809 6.41372 14.4038C6.6895 14.2242 7.05636 14.1344 7.5143 14.1344C7.91152 14.1344 8.25941 14.2141 8.55796 14.3735C8.8565 14.5303 9.08801 14.7719 9.25246 15.0983C9.41944 15.4222 9.50294 15.8346 9.50294 16.3355V20.0396H8.60729V16.3963C8.60729 15.9332 8.48711 15.5752 8.24676 15.3222C8.00893 15.0667 7.67876 14.9389 7.25624 14.9389C6.96275 14.9389 6.69962 15.0009 6.46685 15.1249C6.23662 15.2489 6.05445 15.4298 5.92036 15.6676C5.7888 15.9054 5.72301 16.1938 5.72301 16.5329ZM13.5855 20.161C13.0238 20.161 12.5393 20.037 12.132 19.7891C11.7272 19.5386 11.4147 19.1894 11.1946 18.7416C10.977 18.2913 10.8682 17.7675 10.8682 17.1705C10.8682 16.5734 10.977 16.0471 11.1946 15.5917C11.4147 15.1337 11.7209 14.777 12.113 14.5215C12.5077 14.2634 12.9682 14.1344 13.4944 14.1344C13.798 14.1344 14.0979 14.185 14.3939 14.2862C14.6899 14.3874 14.9593 14.5518 15.2022 14.7795C15.4451 15.0047 15.6387 15.3033 15.7829 15.6752C15.9271 16.0471 15.9992 16.505 15.9992 17.049V17.4285H11.5058V16.6543H15.0884C15.0884 16.3254 15.0226 16.0319 14.891 15.7739C14.762 15.5158 14.5773 15.3121 14.3369 15.1628C14.0991 15.0136 13.8183 14.9389 13.4944 14.9389C13.1377 14.9389 12.829 15.0275 12.5684 15.2046C12.3104 15.3792 12.1118 15.6069 11.9726 15.8877C11.8334 16.1685 11.7639 16.4696 11.7639 16.7909V17.3071C11.7639 17.7473 11.8398 18.1205 11.9916 18.4266C12.1459 18.7302 12.3597 18.9617 12.6329 19.1211C12.9062 19.278 13.2237 19.3564 13.5855 19.3564C13.8208 19.3564 14.0333 19.3235 14.2231 19.2578C14.4154 19.1894 14.5811 19.0882 14.7203 18.9542C14.8594 18.8175 14.9669 18.648 15.0428 18.4456L15.9081 18.6885C15.817 18.982 15.664 19.24 15.4489 19.4627C15.2339 19.6828 14.9682 19.8549 14.6519 19.9788C14.3357 20.1003 13.9802 20.161 13.5855 20.161ZM17.3616 20.0396V14.2103H18.2573V20.0396H17.3616ZM17.8171 13.2387C17.6425 13.2387 17.4919 13.1793 17.3654 13.0604C17.2415 12.9414 17.1795 12.7985 17.1795 12.6315C17.1795 12.4645 17.2415 12.3216 17.3654 12.2027C17.4919 12.0838 17.6425 12.0243 17.8171 12.0243C17.9916 12.0243 18.1409 12.0838 18.2649 12.2027C18.3914 12.3216 18.4546 12.4645 18.4546 12.6315C18.4546 12.7985 18.3914 12.9414 18.2649 13.0604C18.1409 13.1793 17.9916 13.2387 17.8171 13.2387ZM20.7934 16.5329V20.0396H19.8977V14.2103H20.763V15.1211H20.8389C20.9755 14.8251 21.183 14.5873 21.4613 14.4076C21.7396 14.2255 22.0989 14.1344 22.5391 14.1344C22.9338 14.1344 23.2792 14.2153 23.5752 14.3773C23.8712 14.5367 24.1014 14.7795 24.2659 15.1059C24.4303 15.4298 24.5126 15.8396 24.5126 16.3355V20.0396H23.6169V16.3963C23.6169 15.9383 23.498 15.5816 23.2602 15.326C23.0224 15.068 22.696 14.9389 22.281 14.9389C21.9951 14.9389 21.7396 15.0009 21.5144 15.1249C21.2918 15.2489 21.116 15.4298 20.9869 15.6676C20.8579 15.9054 20.7934 16.1938 20.7934 16.5329ZM30.2783 15.5158L29.4737 15.7435C29.4231 15.6094 29.3485 15.4791 29.2498 15.3526C29.1537 15.2236 29.0221 15.1173 28.8551 15.0338C28.6881 14.9503 28.4743 14.9086 28.2137 14.9086C27.857 14.9086 27.5597 14.9908 27.3219 15.1553C27.0866 15.3172 26.9689 15.5234 26.9689 15.7739C26.9689 15.9965 27.0499 16.1723 27.2118 16.3014C27.3738 16.4304 27.6268 16.5379 27.9709 16.624L28.8361 16.8365C29.3573 16.963 29.7457 17.1565 30.0012 17.4171C30.2568 17.6752 30.3845 18.0079 30.3845 18.4152C30.3845 18.7492 30.2884 19.0478 30.0961 19.3109C29.9064 19.574 29.6407 19.7815 29.2991 19.9333C28.9576 20.0851 28.5604 20.161 28.1075 20.161C27.5129 20.161 27.0208 20.032 26.6312 19.7739C26.2416 19.5158 25.9949 19.1388 25.8911 18.643L26.7412 18.4304C26.8222 18.7442 26.9753 18.9795 27.2004 19.1363C27.4282 19.2932 27.7254 19.3716 28.0923 19.3716C28.5098 19.3716 28.8412 19.2831 29.0866 19.106C29.3346 18.9263 29.4585 18.7113 29.4585 18.4608C29.4585 18.2584 29.3877 18.0889 29.246 17.9522C29.1043 17.8131 28.8867 17.7094 28.5933 17.641L27.6217 17.4133C27.0879 17.2868 26.6957 17.0908 26.4452 16.8251C26.1973 16.5569 26.0733 16.2217 26.0733 15.8194C26.0733 15.4905 26.1657 15.1995 26.3503 14.9465C26.5376 14.6935 26.7918 14.4949 27.1132 14.3507C27.437 14.2065 27.8039 14.1344 28.2137 14.1344C28.7906 14.1344 29.2435 14.2609 29.5724 14.5139C29.9038 14.7669 30.1391 15.1009 30.2783 15.5158ZM34.2679 14.2103V14.9693H31.247V14.2103H34.2679ZM32.1274 12.8137H33.0231V18.3697C33.0231 18.6227 33.0598 18.8125 33.1331 18.939C33.209 19.0629 33.3052 19.1464 33.4216 19.1894C33.5405 19.2299 33.6657 19.2502 33.7973 19.2502C33.896 19.2502 33.9769 19.2451 34.0402 19.235C34.1034 19.2223 34.154 19.2122 34.192 19.2046L34.3741 20.0092C34.3134 20.032 34.2287 20.0547 34.1199 20.0775C34.0111 20.1028 33.8732 20.1155 33.7062 20.1155C33.4532 20.1155 33.2052 20.0611 32.9624 19.9523C32.722 19.8435 32.5221 19.6778 32.3627 19.4551C32.2059 19.2325 32.1274 18.9516 32.1274 18.6126V12.8137ZM35.6151 20.0396V14.2103H36.5108V20.0396H35.6151ZM36.0706 13.2387C35.896 13.2387 35.7454 13.1793 35.6189 13.0604C35.495 12.9414 35.433 12.7985 35.433 12.6315C35.433 12.4645 35.495 12.3216 35.6189 12.2027C35.7454 12.0838 35.896 12.0243 36.0706 12.0243C36.2451 12.0243 36.3944 12.0838 36.5184 12.2027C36.6449 12.3216 36.7081 12.4645 36.7081 12.6315C36.7081 12.7985 36.6449 12.9414 36.5184 13.0604C36.3944 13.1793 36.2451 13.2387 36.0706 13.2387ZM40.6863 14.2103V14.9693H37.6654V14.2103H40.6863ZM38.5459 12.8137H39.4416V18.3697C39.4416 18.6227 39.4782 18.8125 39.5516 18.939C39.6275 19.0629 39.7237 19.1464 39.84 19.1894C39.959 19.2299 40.0842 19.2502 40.2158 19.2502C40.3144 19.2502 40.3954 19.2451 40.4586 19.235C40.5219 19.2223 40.5725 19.2122 40.6104 19.2046L40.7926 20.0092C40.7319 20.032 40.6471 20.0547 40.5383 20.0775C40.4295 20.1028 40.2917 20.1155 40.1247 20.1155C39.8717 20.1155 39.6237 20.0611 39.3808 19.9523C39.1405 19.8435 38.9406 19.6778 38.7812 19.4551C38.6243 19.2325 38.5459 18.9516 38.5459 18.6126V12.8137ZM45.7073 17.6562V14.2103H46.6029V20.0396H45.7073V19.0528H45.6465C45.5099 19.3488 45.2974 19.6006 45.009 19.808C44.7205 20.013 44.3562 20.1155 43.916 20.1155C43.5517 20.1155 43.2278 20.0358 42.9444 19.8764C42.6611 19.7144 42.4384 19.4716 42.2765 19.1477C42.1146 18.8213 42.0336 18.4102 42.0336 17.9143V14.2103H42.9293V17.8536C42.9293 18.2786 43.0482 18.6177 43.286 18.8707C43.5263 19.1237 43.8325 19.2502 44.2044 19.2502C44.4271 19.2502 44.6535 19.1932 44.8837 19.0794C45.1165 18.9655 45.3113 18.791 45.4682 18.5557C45.6276 18.3204 45.7073 18.0206 45.7073 17.6562ZM50.7785 14.2103V14.9693H47.7576V14.2103H50.7785ZM48.638 12.8137H49.5337V18.3697C49.5337 18.6227 49.5704 18.8125 49.6437 18.939C49.7196 19.0629 49.8158 19.1464 49.9322 19.1894C50.0511 19.2299 50.1763 19.2502 50.3079 19.2502C50.4066 19.2502 50.4875 19.2451 50.5508 19.235C50.614 19.2223 50.6646 19.2122 50.7026 19.2046L50.8847 20.0092C50.824 20.032 50.7393 20.0547 50.6305 20.0775C50.5217 20.1028 50.3838 20.1155 50.2168 20.1155C49.9638 20.1155 49.7158 20.0611 49.473 19.9523C49.2326 19.8435 49.0327 19.6778 48.8733 19.4551C48.7165 19.2325 48.638 18.9516 48.638 18.6126V12.8137ZM54.5072 20.161C53.9455 20.161 53.461 20.037 53.0536 19.7891C52.6488 19.5386 52.3364 19.1894 52.1162 18.7416C51.8987 18.2913 51.7899 17.7675 51.7899 17.1705C51.7899 16.5734 51.8987 16.0471 52.1162 15.5917C52.3364 15.1337 52.6425 14.777 53.0347 14.5215C53.4294 14.2634 53.8898 14.1344 54.4161 14.1344C54.7197 14.1344 55.0195 14.185 55.3155 14.2862C55.6115 14.3874 55.881 14.5518 56.1239 14.7795C56.3668 15.0047 56.5603 15.3033 56.7045 15.6752C56.8487 16.0471 56.9208 16.505 56.9208 17.049V17.4285H52.4274V16.6543H56.01C56.01 16.3254 55.9442 16.0319 55.8127 15.7739C55.6836 15.5158 55.4989 15.3121 55.2586 15.1628C55.0208 15.0136 54.7399 14.9389 54.4161 14.9389C54.0593 14.9389 53.7507 15.0275 53.4901 15.2046C53.232 15.3792 53.0334 15.6069 52.8942 15.8877C52.7551 16.1685 52.6855 16.4696 52.6855 16.7909V17.3071C52.6855 17.7473 52.7614 18.1205 52.9132 18.4266C53.0676 18.7302 53.2813 18.9617 53.5546 19.1211C53.8278 19.278 54.1454 19.3564 54.5072 19.3564C54.7425 19.3564 54.955 19.3235 55.1447 19.2578C55.337 19.1894 55.5027 19.0882 55.6419 18.9542C55.7811 18.8175 55.8886 18.648 55.9645 18.4456L56.8298 18.6885C56.7387 18.982 56.5856 19.24 56.3706 19.4627C56.1555 19.6828 55.8898 19.8549 55.5736 19.9788C55.2573 20.1003 54.9019 20.161 54.5072 20.161ZM60.6514 20.161C60.1252 20.161 59.6634 20.0358 59.2662 19.7853C58.8715 19.5348 58.5629 19.1844 58.3402 18.734C58.1201 18.2837 58.01 17.7574 58.01 17.1553C58.01 16.5481 58.1201 16.018 58.3402 15.5651C58.5629 15.1122 58.8715 14.7606 59.2662 14.5101C59.6634 14.2596 60.1252 14.1344 60.6514 14.1344C61.1777 14.1344 61.6382 14.2596 62.0329 14.5101C62.4301 14.7606 62.7387 15.1122 62.9589 15.5651C63.1815 16.018 63.2928 16.5481 63.2928 17.1553C63.2928 17.7574 63.1815 18.2837 62.9589 18.734C62.7387 19.1844 62.4301 19.5348 62.0329 19.7853C61.6382 20.0358 61.1777 20.161 60.6514 20.161ZM60.6514 19.3564C61.0512 19.3564 61.3801 19.254 61.6382 19.049C61.8962 18.8441 62.0872 18.5746 62.2112 18.2407C62.3352 17.9067 62.3972 17.5449 62.3972 17.1553C62.3972 16.7656 62.3352 16.4026 62.2112 16.0661C62.0872 15.7296 61.8962 15.4576 61.6382 15.2501C61.3801 15.0427 61.0512 14.9389 60.6514 14.9389C60.2517 14.9389 59.9228 15.0427 59.6647 15.2501C59.4066 15.4576 59.2156 15.7296 59.0916 16.0661C58.9677 16.4026 58.9057 16.7656 58.9057 17.1553C58.9057 17.5449 58.9677 17.9067 59.0916 18.2407C59.2156 18.5746 59.4066 18.8441 59.6647 19.049C59.9228 19.254 60.2517 19.3564 60.6514 19.3564ZM67.2559 14.2103V14.9693H64.1135V14.2103H67.2559ZM65.0547 20.0396V13.4057C65.0547 13.0717 65.1331 12.7934 65.29 12.5708C65.4469 12.3481 65.6505 12.1812 65.901 12.0698C66.1515 11.9585 66.4159 11.9029 66.6942 11.9029C66.9143 11.9029 67.0939 11.9206 67.2331 11.956C67.3722 11.9914 67.476 12.0243 67.5443 12.0547L67.2862 12.8289C67.2407 12.8137 67.1774 12.7947 67.0965 12.7719C67.018 12.7492 66.9143 12.7378 66.7853 12.7378C66.4892 12.7378 66.2755 12.8124 66.1439 12.9617C66.0149 13.111 65.9503 13.3298 65.9503 13.6182V20.0396H65.0547Z" fill="#796F89"></path></g><defs><clipPath id="clip0_42_1624"><rect width="276.081" height="94.9719" fill="white" transform="translate(0 0.0791016)"></rect></clipPath></defs></svg>